<svg xmlns="http://www.w3.org/2000/svg" version="1.1" xmlns:xlink="http://www.w3.org/1999/xlink" xmlns:svgjs="http://svgjs.dev/svgjs" width="100%" height="100%" viewBox="0 0 1000 600"><rect width="1000" height="600" x="0" y="0" fill="#4682b4"/><g><rect width="333.3333333333333" height="333.3333333333333" rx="13.333333333333334" ry="13.333333333333334" y="175.0856682789476" fill="#E2V144" transform="matrix(0.8177231964221445,0,0,0.8177231964221442,0,20.54116298415026)" x="152.86346435546872"/><path d="M240.26500909536196 321.7379296934019L240.26500909536196 325.88778535787156L267.8730766409309 325.6572378209565Q283.23330628789154 325.6572378209565 283.23330628789154 326.0895144526722L283.23330628789154 326.0895144526722Q283.23330628789154 298.9137235388187 284.040222667094 286.46415654540976Q284.8759574884108 274.0145895520008 284.8759574884108 273.58231292028523Q284.8759574884108 273.178854730684 287.90189391041986 271.50738508805034Q290.8990118903147 269.86473388753114 296.28806056570227 268.308538013355Q301.67710924108997 266.7523421391789 305.53878048441595 266.7523421391789Q309.37163328562747 266.7523421391789 309.37163328562747 267.55925851838134L309.37163328562747 267.55925851838134Q307.094976358592 298.0779887175019 307.094976358592 332.6313008126347Q307.094976358592 367.15579446565306 309.16990419082686 383.9857646604467Q311.2448320230617 400.7869164131259 318.27653189896864 407.8474347311472L318.27653189896864 407.8474347311472Q318.27653189896864 408.2508929207484 316.31687783519124 409.922362563382Q314.35722377141394 411.5650137639013 306.9797025901346 413.8416706909367Q299.60218140885513 416.1471460600865 293.17566881735 416.1471460600865L293.17566881735 416.1471460600865L290.69728279551407 415.71486942837095Q286.749156225845 411.7667428587019 285.19296035166883 399.4324496337504Q283.63676447749276 387.09815640879896 283.43503538269215 347.44398005942224L283.43503538269215 347.44398005942224Q279.8903670026243 347.24225096462163 260.9278320913671 347.24225096462163Q241.93647873799557 347.24225096462163 240.06328000056135 347.8762566911378L240.06328000056135 347.8762566911378Q239.86155090576077 353.66876355612675 239.86155090576077 373.4958517308151Q239.86155090576077 393.32293990550346 241.50420210628 406.5794232781148L241.50420210628 406.5794232781148Q241.50420210628 408.8848986472646 234.8759604199743 410.4410945214407Q228.2477187336686 411.99729039561686 222.54166719502282 411.99729039561686Q216.83561565637703 411.99729039561686 215.68287797180213 410.8445527110419Q214.53014028722723 409.69181502646705 214.53014028722723 372.7753906779557L214.53014028722723 372.7753906779557L214.53014028722723 348.27971488073905Q211.85002517059058 345.801328858903 208.30535679052275 338.7408105408817Q204.7895068525693 331.6802922228604 204.7895068525693 327.1269783687895L204.7895068525693 327.1269783687895Q204.7895068525693 326.4929726422733 214.9624169189428 326.4929726422733L214.9624169189428 326.4929726422733Q215.16414601374342 311.76674872182895 215.16414601374342 292.68894004211427L215.16414601374342 292.68894004211427L215.16414601374342 288.30853684072963Q209.77509733835575 278.36617431127104 209.77509733835575 268.59672243449876L209.77509733835575 268.59672243449876Q209.77509733835575 267.7898060552963 209.97682643315636 267.55925851838134L209.97682643315636 267.55925851838134Q211.2160194440744 267.35752942358073 212.25348336019178 267.35752942358073Q213.2909472763092 267.35752942358073 216.92207098272016 267.35752942358073Q220.55319468913112 267.35752942358073 227.21025481755117 268.71199620295624Q233.83849650385687 270.06646298233176 237.78662307352593 271.70911418285095Q241.73474964319496 273.3805838254846 241.73474964319496 274.418047741602L241.73474964319496 274.418047741602Q240.26500909536196 284.59095780797554 240.26500909536196 321.7379296934019L240.26500909536196 321.7379296934019ZM366.6338777668858 393.0923923685884L366.6338777668858 393.0923923685884Q380.52436686601345 393.0923923685884 392.97393385942246 385.0232285765641Q405.42350085283135 376.9252463424254 405.42350085283135 365.91660145473503L405.42350085283135 365.91660145473503Q405.42350085283135 358.0491667575114 399.19871735612685 352.8618471769243L399.19871735612685 352.8618471769243Q388.42062000535157 344.1298592162694 369.11226378872186 344.1298592162694L369.11226378872186 344.1298592162694Q364.35722083985036 344.1298592162694 364.0402179765923 344.33158831107Q363.7232151133343 344.56213584798496 363.7232151133343 363.6399445276996Q363.7232151133343 382.7177532074143 365.5964138507684 392.89066327378777L365.5964138507684 392.89066327378777Q365.9998720403696 393.0923923685884 366.6338777668858 393.0923923685884ZM382.82984223516326 318.9137223661933Q388.21889091055095 316.7523392076154 392.05174371176247 312.2854806798876Q395.884596512974 307.81862215215983 395.884596512974 302.9483054348309Q395.884596512974 298.0779887175019 392.97393385942246 295.16732606395027Q390.0920896479852 292.2566634103987 385.71168644660054 290.81574130468005Q381.36010168733026 289.34600075684705 377.32551979131813 288.7408134724452Q373.26211945319153 288.106807745929 369.54454042043744 288.106807745929Q365.798142945569 288.106807745929 365.48114008231096 288.4238106091871Q365.1929556611673 288.7408134724452 364.6742237031085 305.42669145666696Q364.15549174504986 322.1413878830031 364.15549174504986 323.17885179912054L364.15549174504986 323.17885179912054Q364.35722083985036 323.38058089392115 366.31687490362776 323.38058089392115Q368.3053474095194 323.38058089392115 372.8586612635903 322.25666165146055Q377.4119751176612 321.1039239668857 382.82984223516326 318.9137223661933ZM337.78661721039884 378.1644393533434L337.78661721039884 378.1644393533434L338.82408112651626 298.9137235388187Q338.82408112651626 290.61401220987943 338.42062293691504 290.18173557816385L338.42062293691504 290.18173557816385Q336.1439660098796 287.9050786511284 332.39756853501115 280.1240992802478Q328.6511710601427 272.3431199093672 328.6511710601427 270.06646298233176L328.6511710601427 270.06646298233176L328.88171859705767 269.43245725581556Q330.1209116079758 268.39499333969815 342.05174664332606 267.55925851838134Q353.9825816786763 266.7523421391789 365.7116876192259 266.7523421391789Q377.4119751176612 266.7523421391789 387.18142699443354 268.19326424489753Q396.9220604290914 269.6341863506161 406.1727803478051 272.7465780989684Q415.3946818244043 275.8589698473206 420.9854595945926 281.997298017682Q426.60505580689517 288.106807745929 426.60505580689517 295.686058022009Q426.60505580689517 303.265308298089 423.3773902900855 309.37481802633596Q420.17854321539016 315.5131461966974 415.3946818244043 319.66300186116706L415.3946818244043 319.66300186116706Q408.1324344115824 325.88778535787156 401.2736451883617 329.2019062010243L401.2736451883617 329.2019062010243Q400.87018699876046 329.60536439062554 400.87018699876046 329.80709348542615L400.87018699876046 329.80709348542615Q401.0719160935611 330.0376410223411 403.8673049786553 330.84455740154357Q406.69151230586374 331.6802922228604 409.28517209615734 332.83302990743533Q411.8788318864508 333.9569491498958 415.5964109192049 335.83014788733004Q419.34280839407336 337.70334662476427 422.4552001424255 340.29700641505787Q425.56759189077775 342.89066620535135 428.2477070074144 346.2047870485042L428.2477070074144 346.2047870485042Q434.2707614093183 353.2653053665255 434.2707614093183 365.3978694966764Q434.2707614093183 377.53043362682723 426.8067849016959 388.1356203249164Q419.34280839407336 398.71198858089105 406.89324140066435 404.73504298279494L406.89324140066435 404.73504298279494Q381.99410741384645 416.75233334448836 350.23618420380785 416.75233334448836L350.23618420380785 416.75233334448836L339.65981594783307 416.1471460600865Q339.0258102213169 415.3114112387697 338.42062293691504 401.10391927638403Q337.78661721039884 386.867608871884 337.78661721039884 378.1644393533434Z " fill="#4682b4" transform="matrix(0.8177231964221445,0,0,0.8177231964221442,0,20.54116298415026)"/><path d="M577.2701880612066 414.65727830786483L577.2701880612066 414.65727830786483Q572.6727101568493 414.65727830786483 569.7338160534313 413.40606596680567L569.7338160534313 413.40606596680567Q569.7338160534313 378.1975326486275 575.8152899902075 313.04719702928793L575.8152899902075 313.04719702928793L577.7066574825063 291.4856076170813Q574.7677633790881 287.90655836242354 572.1489468512897 280.57387208458806Q569.5301303234913 273.24118580675264 569.5301303234913 270.3022917033345L569.5301303234913 270.3022917033345L569.7338160534313 269.6912345135148Q570.3739712046709 268.8473936323354 580.2090821646248 268.20723848109577Q590.0732910859987 267.59618129127614 601.8870634225112 267.59618129127614Q613.7299337204439 267.59618129127614 614.7774603315632 268.6437079023955Q615.8249869426826 269.6912345135148 624.845354982877 294.91916706463917Q633.8366250616515 320.1761975771836 638.2595151974887 333.9977292516749L638.2595151974887 333.9977292516749Q638.6668866573684 335.04525586279425 639.307041808608 335.04525586279425Q639.9180989984277 335.04525586279425 641.4020950308467 330.53507184269705Q642.8569931018459 326.05398578401986 653.5359449429792 299.1092735091166Q664.2148967841126 272.1936591956333 667.7939460387704 268.6437079023955L667.7939460387704 268.6437079023955Q669.6853135310693 266.7523404100966 688.1043231099178 266.7523404100966Q706.5524306501864 266.7523404100966 706.5524306501864 267.799867021216L706.5524306501864 267.799867021216Q706.5524306501864 271.34981831445384 703.7299283924481 280.1665006247083Q700.8783281732898 288.9540849735429 699.0160586424109 292.53313422820065L699.0160586424109 292.53313422820065Q706.3487449202464 358.9346821885994 706.3487449202464 410.0598004035077L706.3487449202464 410.0598004035077Q706.3487449202464 412.1548536257464 697.8521401856117 413.92982927236534Q689.355535450977 415.70480491898417 683.9142166654403 415.70480491898417Q678.4728978799037 415.70480491898417 678.4728978799037 414.86096403780476L678.4728978799037 414.86096403780476Q679.1130530311433 406.2770654189101 679.1130530311433 387.10150884314197Q679.1130530311433 367.9550502287938 678.065526420024 341.5341012594503L678.065526420024 341.5341012594503Q677.0179998089046 308.65340485487064 675.5340037764856 308.65340485487064L675.5340037764856 308.65340485487064L674.2827914354264 309.9046171959299Q670.0926849909489 317.67377289506504 663.487447748613 336.0927824739137Q656.8822105062771 354.54089001418214 652.4884183318599 369.2062625698531L652.4884183318599 369.2062625698531L648.0946261574426 383.6679493955841Q647.0470995463232 385.9666883477627 641.9258583364065 385.9666883477627Q636.7755191650696 385.9666883477627 633.5456454474516 385.32653319652303Q630.2866737684136 384.71547600670345 630.0829880384738 384.0753208554639L630.0829880384738 384.0753208554639Q629.4428328872342 381.77658190328526 617.0761992837419 347.2954976206067Q604.7386636416695 312.8435112993481 602.8472961493707 310.5447723471695L602.8472961493707 310.5447723471695Q602.2071409981311 309.2935600061103 601.7997695382513 309.2935600061103Q601.3633001169516 309.2935600061103 601.1596143870117 310.7484580771094L601.1596143870117 310.7484580771094Q597.405977363834 329.80762280719756 597.405977363834 366.79113177199457Q597.405977363834 403.7746407367916 598.4535039749534 409.62333098220796L598.4535039749534 409.62333098220796Q593.2158709193567 414.65727830786483 577.2701880612066 414.65727830786483ZM809.0063528099428 362.4846334818372Q809.0063528099428 382.38763909310495 796.9597967820703 396.9657177645159Q784.9132407541978 411.5146984745068 764.2536881460105 411.5146984745068Q743.6232334992434 411.5146984745068 731.8967550469906 398.7406934111347Q720.1702765947379 385.9666883477627 720.1702765947379 365.5399194309354Q720.1702765947379 345.1131505141081 734.7192573047288 329.2838595016379Q749.2973359761398 313.4836664505877 774.0015052217044 313.4836664505877L774.0015052217044 313.4836664505877Q784.0693998730183 313.89103791046745 784.9132407541978 314.73487879164696Q785.7279836739572 315.57871967282637 785.7279836739572 318.7212995061844Q785.7279836739572 321.8638793395425 785.1169264841375 325.6175163627201L785.1169264841375 325.6175163627201Q788.2595063174956 325.6175163627201 793.1770617974726 329.2838595016379Q798.0946172774495 332.9502026405556 801.2371971108076 336.7329376251533Q804.3797769441657 340.4865746483309 806.6785158963442 347.2954976206067Q809.0063528099428 354.1044205928825 809.0063528099428 362.4846334818372L809.0063528099428 362.4846334818372ZM778.3952973961217 347.81926092616635L778.3952973961217 347.81926092616635Q773.5941337618248 344.67668109280834 768.9675578960475 344.67668109280834L768.9675578960475 344.67668109280834L767.3089740951086 344.67668109280834Q766.8725046738089 343.8619381730488 766.8725046738089 341.12672979957057Q766.8725046738089 338.3915214260922 767.5126598250484 335.88909674397377L767.5126598250484 335.88909674397377Q758.9287612061538 335.88909674397377 751.4796830826384 343.629154481689Q744.059702920543 351.3983101808241 744.059702920543 365.21984185531556L744.059702920543 365.21984185531556Q744.059702920543 381.57289617334544 754.5349690317365 387.85805584006147L754.5349690317365 387.85805584006147Q758.492291784854 390.36048052218 765.5339984484897 390.36048052218Q772.5466071507054 390.36048052218 778.7153749717415 383.87163512552394Q784.9132407541978 377.382789728868 784.9132407541978 364.579686704076Q784.9132407541978 351.8056816407039 778.3952973961217 347.81926092616635ZM858.0073198411923 410.4671718633875L853.613527666775 410.6708575933273Q847.7648374213587 410.6708575933273 843.982102436761 409.41964525226814L843.982102436761 409.41964525226814Q843.982102436761 405.02585307785085 830.6843340678292 365.10345000963565Q817.3865656988976 325.21014490284045 817.3865656988976 316.82993201388564L817.3865656988976 316.82993201388564Q817.3865656988976 316.3934625925859 819.5689128053962 315.0549563672667Q821.7803578733148 313.6873521805275 827.2216766588514 312.2033561481085Q832.662995444388 310.7484580771094 839.5883102623437 310.7484580771094L839.5883102623437 310.7484580771094Q852.3623153257158 362.71741717319713 858.8511607223718 377.15000603750815L858.8511607223718 377.15000603750815Q859.0548464523116 378.1975326486275 859.6950016035513 377.15000603750815L859.6950016035513 377.15000603750815Q863.477736588149 370.45747491091237 871.2177943258641 341.65049310513024Q878.9578520635793 312.8435112993481 879.8016929447589 304.0559269505135L879.8016929447589 304.0559269505135Q880.0053786746986 302.7756166480343 884.428268810536 301.8444818825949Q888.8220609849533 300.91334711715547 895.9510615328487 300.91334711715547Q903.0509641193244 300.91334711715547 905.5824867628628 303.00840033939414L905.5824867628628 303.00840033939414Q905.5824867628628 309.0607763147504 890.713428477252 357.1597065419806Q875.8152722302212 405.2295388077907 874.1566884292823 406.9172205701497L874.1566884292823 406.9172205701497Q871.2177943258641 409.8561146735679 858.0073198411923 410.4671718633875L858.0073198411923 410.4671718633875ZM928.9481497831083 281.0103415058878Q934.7095461442647 281.0103415058878 938.2594974375025 284.7639785290655Q941.8094487307403 288.5467135136631 941.8094487307403 294.6281874504394Q941.8094487307403 300.6805634257956 937.0955789807032 304.9870617159529Q932.3817092306662 309.2935600061103 926.6203128695098 309.2935600061103Q920.8589165083533 309.2935600061103 917.4253570607954 305.62721686719254Q913.9626996518176 301.9608737282748 913.9626996518176 295.8793997914986Q913.9626996518176 289.7979258547224 918.5601775561747 285.4041336803051Q923.186753421952 281.0103415058878 928.9481497831083 281.0103415058878ZM939.7143955085015 322.4749365293621L939.5107097785617 333.1538883704955L939.103338318682 367.1112093476144Q939.103338318682 383.4351657042243 940.0344730841215 391.0879295576795Q940.9947058109807 398.7406934111347 945.3884979853981 405.4332245377306L945.3884979853981 405.4332245377306Q945.3884979853981 407.5282777599693 936.8045993665033 412.1548536257464Q928.1916027861888 416.7523315301036 922.1392268108325 416.7523315301036L922.1392268108325 416.7523315301036Q920.2478593185336 416.7523315301036 918.3564918262349 410.4671718633875Q916.465124333936 404.18201219667134 915.9413610283764 398.5370076811949Q915.4175977228166 392.86290520429844 915.4175977228166 360.3895802595985Q915.4175977228166 327.9162553148987 916.9015937552358 325.0064591729005L916.9015937552358 325.0064591729005Q921.7027573895328 321.2237241883029 933.8657052630853 321.2237241883029L933.8657052630853 321.2237241883029Q938.6668688973823 321.2237241883029 939.7143955085015 322.4749365293621L939.7143955085015 322.4749365293621ZM1008.4437803824989 339.43904803721153L1008.4437803824989 339.43904803721153Q1008.4437803824989 333.38667206185534 1001.954934985843 333.38667206185534L1001.954934985843 333.38667206185534Q993.3710363669483 333.38667206185534 986.8530930088724 342.1742564106899Q980.3642476122164 350.96184075952436 980.3642476122164 363.3284743630167L980.3642476122164 363.3284743630167Q980.3642476122164 366.2673684664349 981.2080884933958 366.2673684664349L981.2080884933958 366.2673684664349Q988.7444605011711 366.0636827364951 998.6086694225451 357.56707800186035Q1008.4437803824989 349.09957122864563 1008.4437803824989 339.43904803721153ZM1026.6591042314076 406.0733796889702L1026.6591042314076 406.0733796889702Q1019.559201644932 410.90364128468724 998.8123551524849 410.90364128468724Q978.0655086600378 410.90364128468724 966.9500873976048 398.5370076811949Q955.8637640965916 386.17037407770255 955.8637640965916 365.5399194309354Q955.8637640965916 344.90946478416816 969.1615324655234 329.72032892293765Q982.459300834455 314.53119306170703 1006.5524128902001 314.53119306170703L1006.5524128902001 314.53119306170703Q1016.416621811574 314.53119306170703 1024.680442854849 319.76882611730383Q1032.9442638981236 325.0064591729005 1032.9442638981236 338.10054181189236Q1032.9442638981236 351.1946244508843 1021.5378630214908 363.9686295142563Q1010.1314621448579 376.7426345776284 990.4321422635302 383.4351657042243L990.4321422635302 383.4351657042243Q990.4321422635302 385.9666883477627 995.5533834734468 387.53797826444173Q1000.7037226447839 389.10926818112074 1005.7085720090207 389.10926818112074L1005.7085720090207 389.10926818112074Q1021.6542548671707 389.10926818112074 1030.849210675885 383.4351657042243L1030.849210675885 383.4351657042243Q1031.081994367245 383.23147997428435 1031.4893658271244 383.23147997428435Q1031.8967372870043 383.23147997428435 1031.8967372870043 387.2179006888219L1031.8967372870043 387.2179006888219Q1031.8967372870043 399.3808485623744 1026.6591042314076 406.0733796889702ZM1066.4651154539429 385.9666883477627Q1070.0441647086009 389.5166396410005 1070.0441647086009 394.55058696665736Q1070.0441647086009 399.58453429231423 1066.174135839743 403.45456316117185Q1062.2750090094655 407.32459203002946 1057.270159645229 407.32459203002946Q1052.2362123195717 407.32459203002946 1048.8899467562737 403.8619346210516Q1045.5145832315561 400.42837517349375 1045.5145832315561 395.07435027221703Q1045.5145832315561 389.7203253709403 1049.1809263704736 386.05398223202263Q1052.8472695093915 382.38763909310495 1057.8812168350482 382.38763909310495Q1062.915164160705 382.38763909310495 1066.4651154539429 385.9666883477627Z " fill="white" transform="matrix(0.8177231964221445,0,0,0.8177231964221442,0,20.54116298415026)"/></g></svg>